<svg width="20" height="15" viewBox="0 0 20 15" fill="none" xmlns="http://www.w3.org/2000/svg">
<path d="M19.0035 4.59027C18.9192 4.45896 18.8066 4.35164 18.6754 4.27749C18.5441 4.20335 18.3982 4.16459 18.25 4.16453H5.72193L4.66409 1.42836C4.52539 1.06804 4.29052 0.760211 3.98927 0.543908C3.68801 0.327605 3.33393 0.212568 2.97193 0.213383H0.833344V2.18896H2.97193L7.32059 13.4349C7.39025 13.6148 7.50775 13.7685 7.65831 13.8766C7.80887 13.9847 7.98575 14.0424 8.16668 14.0424H15.5C15.8823 14.0424 16.2242 13.7866 16.3589 13.4023L19.1089 5.50002C19.1609 5.35049 19.1785 5.18961 19.1601 5.03117C19.1417 4.87272 19.088 4.72144 19.0035 4.59027ZM14.8648 12.0668H8.77809L6.48643 6.14011H16.9273L14.8648 12.0668Z" fill="white"/>
</svg>
