<svg width="102" height="26" viewBox="0 0 102 26" fill="none" xmlns="http://www.w3.org/2000/svg">
<path d="M0.476562 25.1638V0.554443H4.41406V25.1638H0.476562ZM6.20703 14.0544V10.2224H8.5625C10.2734 10.2224 11.1992 9.39038 11.3398 7.72632C11.3398 7.58569 11.3398 7.44507 11.3398 7.30444C11.1758 5.45288 10.25 4.48022 8.5625 4.38647H6.20703V0.554443H8.87891C13.1445 0.624756 15.2891 2.85132 15.3125 7.23413C15.3125 10.6326 14.2344 12.7537 12.0781 13.5974C11.1875 13.9021 10.1211 14.0544 8.87891 14.0544C8.83203 14.0544 7.94141 14.0544 6.20703 14.0544ZM17.2461 18.3083V6.74194C17.2461 5.49976 17.7734 4.23413 18.8281 2.94507C20.2344 1.25757 22.0156 0.4021 24.1719 0.378662V4.28101C22.9531 4.30444 22.0391 4.96069 21.4297 6.24976C21.2422 6.67163 21.1484 7.02319 21.1484 7.30444V18.3083C21.1484 19.574 21.8047 20.5115 23.1172 21.1208C23.5156 21.3083 23.8555 21.4021 24.1367 21.4021V25.3396C22.8008 25.3396 21.4648 24.8591 20.1289 23.8982C18.2305 22.4919 17.2695 20.6287 17.2461 18.3083ZM26.0703 25.3396V21.4021C26.6797 21.4021 27.3125 21.1208 27.9688 20.5583C28.6719 19.9255 29.0352 19.1755 29.0586 18.3083V7.30444C29.0586 6.60132 28.7539 5.92163 28.1445 5.26538C27.5586 4.63257 26.8672 4.30444 26.0703 4.28101V0.378662C28.4375 0.378662 30.3359 1.39819 31.7656 3.43726C32.5859 4.60913 32.9961 5.71069 32.9961 6.74194V18.3083C32.9961 20.9099 31.8359 22.9021 29.5156 24.2849C28.2969 24.988 27.1484 25.3396 26.0703 25.3396ZM35.8086 25.1638V0.554443H39.7461V25.1638H35.8086ZM41.5391 14.7927V11.2771H43.5078C45.5469 11.2771 46.6719 10.3044 46.8828 8.35913C46.9062 8.14819 46.918 7.94897 46.918 7.76147C46.918 5.79272 46.0273 4.63257 44.2461 4.28101C43.918 4.23413 43.5781 4.21069 43.2266 4.21069H41.5391V0.554443H43.6836C46.8008 0.624756 48.8984 1.78491 49.9766 4.03491C50.4219 4.97241 50.6445 6.05054 50.6445 7.26929C50.6211 9.87085 49.8242 11.7576 48.2539 12.9294C49.4727 13.6326 50.2461 14.8865 50.5742 16.6912C50.6211 16.9958 50.6562 17.2771 50.6797 17.5349L51.2773 25.1638H47.6211L47.0938 18.906C46.9062 16.9373 46.3789 15.6951 45.5117 15.1794C44.9961 14.9216 44.3516 14.7927 43.5781 14.7927H41.5391ZM52.6836 4.38647V0.554443H67.9062V4.38647H62.2812V25.1638H58.3438V4.38647H52.6836ZM69.9453 25.1638V0.554443H82.7422V4.42163H73.8828V10.9607H79.4375V14.8982H73.8828V21.2615H82.7422V25.1638H69.9453ZM85.5898 25.1638V6.81226H85.8711L89.5273 12.6833V25.1638H85.5898ZM85.5898 3.08569V0.554443H88.8594L101.234 20.4177V25.1638H99.3359L85.5898 3.08569ZM97.2969 10.8201V0.554443H101.234V16.6912H100.953L97.2969 10.8201Z" fill="white"/>
</svg>
