<svg width="18" height="18" viewBox="0 0 18 18" fill="none" xmlns="http://www.w3.org/2000/svg">
<path d="M17.25 16.0179L12.5255 10.9269C13.3989 9.49646 13.7487 7.7677 13.5072 6.07531C13.2657 4.38291 12.4501 2.84727 11.2182 1.7657C9.98634 0.684131 8.42587 0.133571 6.83892 0.220617C5.25197 0.307662 3.75144 1.02612 2.62785 2.23689C1.50425 3.44766 0.837524 5.06461 0.756746 6.77468C0.675968 8.48476 1.18689 10.1663 2.19058 11.4938C3.19428 12.8212 4.61936 13.7001 6.1899 13.9604C7.76044 14.2206 9.36473 13.8436 10.6922 12.9025L15.4167 17.9935L17.25 16.0179ZM2.58332 7.12785C2.58332 4.40452 4.63941 2.18891 7.16666 2.18891C9.69391 2.18891 11.75 4.40452 11.75 7.12785C11.75 9.85118 9.69391 12.0668 7.16666 12.0668C4.63941 12.0668 2.58332 9.85118 2.58332 7.12785Z" fill="white"/>
</svg>
