<svg width="14" height="14" viewBox="0 0 14 14" fill="none" xmlns="http://www.w3.org/2000/svg">
<path d="M10.2667 13.6667C7.54486 13.6631 4.93554 12.5803 3.01093 10.6557C1.08632 8.73112 0.00352795 6.1218 0 3.39999C0 2.58666 0.323094 1.80665 0.898206 1.23153C1.47332 0.656423 2.25334 0.333328 3.06667 0.333328C3.23889 0.332016 3.41083 0.347647 3.58 0.379995C3.74354 0.404195 3.90431 0.444388 4.06 0.499995C4.1695 0.538414 4.26707 0.60475 4.34307 0.692443C4.41907 0.780136 4.47087 0.886147 4.49333 0.999995L5.40667 4.99999C5.43128 5.10857 5.42832 5.22158 5.39804 5.32872C5.36777 5.43585 5.31114 5.5337 5.23333 5.61333C5.14667 5.70666 5.14 5.71333 4.32 6.13999C4.97666 7.58057 6.1288 8.73743 7.56667 9.39999C8 8.57333 8.00667 8.56666 8.1 8.47999C8.17963 8.40219 8.27748 8.34556 8.38461 8.31528C8.49175 8.28501 8.60476 8.28204 8.71333 8.30666L12.7133 9.21999C12.8235 9.24556 12.9254 9.29876 13.0094 9.37457C13.0934 9.45037 13.1567 9.5463 13.1933 9.65333C13.2496 9.81157 13.292 9.9744 13.32 10.14C13.3468 10.3075 13.3602 10.477 13.36 10.6467C13.3477 11.4565 13.0155 12.2286 12.436 12.7944C11.8564 13.3602 11.0766 13.6738 10.2667 13.6667ZM3.06667 1.66666C2.6075 1.66842 2.16764 1.8516 1.84295 2.17628C1.51827 2.50097 1.33509 2.94083 1.33333 3.39999C1.3351 5.76872 2.27685 8.03992 3.9518 9.71486C5.62674 11.3898 7.89794 12.3316 10.2667 12.3333C10.7258 12.3316 11.1657 12.1484 11.4904 11.8237C11.8151 11.499 11.9982 11.0592 12 10.6V10.38L8.90667 9.66666L8.71333 10.0333C8.41333 10.6133 8.19333 11.0333 7.63333 10.8067C6.52859 10.4112 5.5258 9.77468 4.69782 8.94325C3.86985 8.11181 3.23748 7.10638 2.84667 5.99999C2.60667 5.47999 3.06 5.23999 3.63333 4.93999L4 4.75999L3.28667 1.66666H3.06667Z" fill="#969696"/>
</svg>
